<?xml version="1.0" encoding="UTF-8"?>
<!DOCTYPE svg PUBLIC "-//W3C//DTD SVG 1.1//EN" "http://www.w3.org/Graphics/SVG/1.1/DTD/svg11.dtd">
<!-- Creator: CorelDRAW -->
<svg xmlns="http://www.w3.org/2000/svg" xml:space="preserve" width="99.9703mm" height="99.9703mm" version="1.1" style="shape-rendering:geometricPrecision; text-rendering:geometricPrecision; image-rendering:optimizeQuality; fill-rule:evenodd; clip-rule:evenodd"
viewBox="0 0 10503.13 10503.13"
 xmlns:xlink="http://www.w3.org/1999/xlink"
 xmlns:xodm="http://www.corel.com/coreldraw/odm/2003">
 <defs>
  <style type="text/css">
   <![CDATA[
    .fil0 {fill:#FEFEFE}
    .fil1 {fill:#373435}
   ]]>
  </style>
 </defs>
 <g id="Camada_x0020_1">
  <metadata id="CorelCorpID_0Corel-Layer"/>
  <g id="_1834237241968">
   <polygon class="fil0" points="-0,0 10503.13,0 10503.13,10503.13 -0,10503.13 "/>
   <g>
    <g>
     <path class="fil1" d="M2902.18 691l276.4 0 0 276.4 -276.4 0 0 -276.4zm276.4 0l276.4 0 0 276.4 -276.4 0 0 -276.4z"/>
     <path class="fil1" d="M3731.38 691l276.4 0 0 276.4 -276.4 0 0 -276.4zm276.4 0l276.4 0 0 276.4 -276.4 0 0 -276.4zm276.4 0l276.4 0 0 276.4 -276.4 0 0 -276.4zm276.4 0l276.4 0 0 276.4 -276.4 0 0 -276.4zm-829.2 276.4l276.4 0 0 276.4 -276.4 0 0 -276.4zm276.4 0l276.4 0 0 276.4 -276.4 0 0 -276.4z"/>
     <polygon class="fil1" points="7324.55,691 7600.94,691 7600.94,967.39 7324.55,967.39 "/>
     <polygon class="fil1" points="4836.97,1243.79 5113.37,1243.79 5113.37,1520.19 4836.97,1520.19 "/>
     <path class="fil1" d="M5113.37 1520.19l276.39 0 0 276.4 -276.39 0 0 -276.4zm276.39 0l276.4 0 0 276.4 -276.4 0 0 -276.4zm-276.39 -829.2l276.39 0 0 276.4 -276.39 0 0 -276.4zm276.39 0l276.4 0 0 276.4 -276.4 0 0 -276.4zm-276.39 276.4l276.39 0 0 276.4 -276.39 0 0 -276.4zm276.39 0l276.4 0 0 276.4 -276.4 0 0 -276.4zm0 276.4l276.4 0 0 276.4 -276.4 0 0 -276.4zm276.4 276.4l276.4 0 0 276.4 -276.4 0 0 -276.4zm276.4 0l276.4 0 0 276.4 -276.4 0 0 -276.4zm0 -276.4l276.4 0 0 276.4 -276.4 0 0 -276.4zm276.4 276.4l276.4 0 0 276.4 -276.4 0 0 -276.4zm276.4 0l276.4 0 0 276.4 -276.4 0 0 -276.4zm0 -276.4l276.4 0 0 276.4 -276.4 0 0 -276.4zm276.4 0l276.4 0 0 276.4 -276.4 0 0 -276.4zm-829.2 -552.8l276.4 0 0 276.4 -276.4 0 0 -276.4zm276.4 0l276.4 0 0 276.4 -276.4 0 0 -276.4zm276.4 0l276.4 0 0 276.4 -276.4 0 0 -276.4zm276.4 0l276.4 0 0 276.4 -276.4 0 0 -276.4zm-552.8 276.4l276.4 0 0 276.4 -276.4 0 0 -276.4zm552.8 0l276.4 0 0 276.4 -276.4 0 0 -276.4zm276.4 276.4l276.4 0 0 276.4 -276.4 0 0 -276.4zm-276.4 276.4l276.4 0 0 276.4 -276.4 0 0 -276.4zm276.4 0l276.4 0 0 276.4 -276.4 0 0 -276.4zm276.4 0l276.4 0 0 276.4 -276.4 0 0 -276.4zm-2211.18 276.4l276.39 0 0 276.4 -276.39 0 0 -276.4zm276.39 0l276.4 0 0 276.4 -276.4 0 0 -276.4zm1105.59 0l276.4 0 0 276.4 -276.4 0 0 -276.4zm276.4 0l276.4 0 0 276.4 -276.4 0 0 -276.4zm-276.4 276.4l276.4 0 0 276.4 -276.4 0 0 -276.4z"/>
     <path class="fil1" d="M2902.18 1796.59l276.4 0 0 276.4 -276.4 0 0 -276.4zm276.4 0l276.4 0 0 276.4 -276.4 0 0 -276.4zm-276.4 -552.8l276.4 0 0 276.4 -276.4 0 0 -276.4zm276.4 0l276.4 0 0 276.4 -276.4 0 0 -276.4zm276.4 0l276.4 0 0 276.4 -276.4 0 0 -276.4zm-276.4 276.4l276.4 0 0 276.4 -276.4 0 0 -276.4zm276.4 0l276.4 0 0 276.4 -276.4 0 0 -276.4z"/>
     <polygon class="fil1" points="3731.38,2072.99 4007.78,2072.99 4007.78,2349.39 3731.38,2349.39 "/>
     <path class="fil1" d="M7048.15 2072.99l276.4 0 0 276.4 -276.4 0 0 -276.4zm276.4 0l276.4 0 0 276.4 -276.4 0 0 -276.4zm0 276.4l276.4 0 0 276.4 -276.4 0 0 -276.4z"/>
     <path class="fil1" d="M2902.18 2349.39l276.4 0 0 276.4 -276.4 0 0 -276.4zm0 276.4l276.4 0 0 276.4 -276.4 0 0 -276.4z"/>
     <polygon class="fil1" points="3454.98,2349.39 3731.38,2349.39 3731.38,2625.78 3454.98,2625.78 "/>
     <polygon class="fil1" points="4007.78,2349.39 4284.17,2349.39 4284.17,2625.78 4007.78,2625.78 "/>
     <polygon class="fil1" points="5113.37,2349.39 5389.76,2349.39 5389.76,2625.78 5113.37,2625.78 "/>
     <path class="fil1" d="M5666.16 2349.39l276.4 0 0 276.4 -276.4 0 0 -276.4zm0 276.4l276.4 0 0 276.4 -276.4 0 0 -276.4zm276.4 0l276.4 0 0 276.4 -276.4 0 0 -276.4zm276.4 0l276.4 0 0 276.4 -276.4 0 0 -276.4zm0 -276.4l276.4 0 0 276.4 -276.4 0 0 -276.4zm-552.8 552.8l276.4 0 0 276.4 -276.4 0 0 -276.4z"/>
     <polygon class="fil1" points="6771.75,2349.39 7048.15,2349.39 7048.15,2625.78 6771.75,2625.78 "/>
     <path class="fil1" d="M4284.17 2625.78l276.4 0 0 276.4 -276.4 0 0 -276.4zm276.4 0l276.4 0 0 276.4 -276.4 0 0 -276.4zm-552.8 -1105.59l276.4 0 0 276.4 -276.4 0 0 -276.4zm276.4 0l276.4 0 0 276.4 -276.4 0 0 -276.4zm276.4 0l276.4 0 0 276.4 -276.4 0 0 -276.4zm-276.4 276.4l276.4 0 0 276.4 -276.4 0 0 -276.4zm0 276.4l276.4 0 0 276.4 -276.4 0 0 -276.4zm276.4 0l276.4 0 0 276.4 -276.4 0 0 -276.4zm0 276.4l276.4 0 0 276.4 -276.4 0 0 -276.4z"/>
     <path class="fil1" d="M7048.15 2625.78l276.4 0 0 276.4 -276.4 0 0 -276.4zm0 276.4l276.4 0 0 276.4 -276.4 0 0 -276.4zm0 276.4l276.4 0 0 276.4 -276.4 0 0 -276.4zm276.4 0l276.4 0 0 276.4 -276.4 0 0 -276.4zm276.4 0l276.4 0 0 276.4 -276.4 0 0 -276.4zm-276.4 276.4l276.4 0 0 276.4 -276.4 0 0 -276.4zm276.4 0l276.4 0 0 276.4 -276.4 0 0 -276.4zm0 276.4l276.4 0 0 276.4 -276.4 0 0 -276.4zm0 276.4l276.4 0 0 276.4 -276.4 0 0 -276.4zm276.4 0l276.4 0 0 276.4 -276.4 0 0 -276.4zm0 276.4l276.4 0 0 276.4 -276.4 0 0 -276.4z"/>
     <path class="fil1" d="M2072.99 2902.18l276.4 0 0 276.4 -276.4 0 0 -276.4zm276.4 0l276.4 0 0 276.4 -276.4 0 0 -276.4z"/>
     <path class="fil1" d="M3178.58 2902.18l276.4 0 0 276.4 -276.4 0 0 -276.4zm276.4 0l276.4 0 0 276.4 -276.4 0 0 -276.4zm276.4 0l276.4 0 0 276.4 -276.4 0 0 -276.4zm-552.8 276.4l276.4 0 0 276.4 -276.4 0 0 -276.4zm276.4 0l276.4 0 0 276.4 -276.4 0 0 -276.4zm276.4 0l276.4 0 0 276.4 -276.4 0 0 -276.4zm-276.4 276.4l276.4 0 0 276.4 -276.4 0 0 -276.4zm276.4 0l276.4 0 0 276.4 -276.4 0 0 -276.4zm276.4 0l276.4 0 0 276.4 -276.4 0 0 -276.4zm0 276.4l276.4 0 0 276.4 -276.4 0 0 -276.4z"/>
     <polygon class="fil1" points="5113.37,2902.18 5389.76,2902.18 5389.76,3178.58 5113.37,3178.58 "/>
     <polygon class="fil1" points="7877.34,2902.18 8153.74,2902.18 8153.74,3178.58 7877.34,3178.58 "/>
     <polygon class="fil1" points="8982.94,2902.18 9259.33,2902.18 9259.33,3178.58 8982.94,3178.58 "/>
     <polygon class="fil1" points="9535.73,2902.18 9812.13,2902.18 9812.13,3178.58 9535.73,3178.58 "/>
     <polygon class="fil1" points="691,3178.58 967.39,3178.58 967.39,3454.98 691,3454.98 "/>
     <path class="fil1" d="M1243.79 3178.58l276.4 0 0 276.4 -276.4 0 0 -276.4zm276.4 0l276.4 0 0 276.4 -276.4 0 0 -276.4zm276.4 0l276.4 0 0 276.4 -276.4 0 0 -276.4zm-552.8 276.4l276.4 0 0 276.4 -276.4 0 0 -276.4z"/>
     <polygon class="fil1" points="4836.97,3178.58 5113.37,3178.58 5113.37,3454.98 4836.97,3454.98 "/>
     <polygon class="fil1" points="5389.76,3178.58 5666.16,3178.58 5666.16,3454.98 5389.76,3454.98 "/>
     <path class="fil1" d="M8153.74 3178.58l276.4 0 0 276.4 -276.4 0 0 -276.4zm276.4 0l276.4 0 0 276.4 -276.4 0 0 -276.4zm0 -276.4l276.4 0 0 276.4 -276.4 0 0 -276.4zm-276.4 552.8l276.4 0 0 276.4 -276.4 0 0 -276.4zm0 276.4l276.4 0 0 276.4 -276.4 0 0 -276.4z"/>
     <polygon class="fil1" points="2349.39,3454.98 2625.78,3454.98 2625.78,3731.38 2349.39,3731.38 "/>
     <polygon class="fil1" points="4560.57,3454.98 4836.97,3454.98 4836.97,3731.38 4560.57,3731.38 "/>
     <polygon class="fil1" points="5113.37,3454.98 5389.76,3454.98 5389.76,3731.38 5113.37,3731.38 "/>
     <path class="fil1" d="M5666.16 3454.98l276.4 0 0 276.4 -276.4 0 0 -276.4zm276.4 0l276.4 0 0 276.4 -276.4 0 0 -276.4zm276.4 0l276.4 0 0 276.4 -276.4 0 0 -276.4zm0 -276.4l276.4 0 0 276.4 -276.4 0 0 -276.4zm276.4 276.4l276.4 0 0 276.4 -276.4 0 0 -276.4zm-829.2 276.4l276.4 0 0 276.4 -276.4 0 0 -276.4zm276.4 0l276.4 0 0 276.4 -276.4 0 0 -276.4zm276.4 0l276.4 0 0 276.4 -276.4 0 0 -276.4zm-552.8 276.4l276.4 0 0 276.4 -276.4 0 0 -276.4zm276.4 0l276.4 0 0 276.4 -276.4 0 0 -276.4z"/>
     <path class="fil1" d="M8706.54 3454.98l276.4 0 0 276.4 -276.4 0 0 -276.4zm276.4 0l276.4 0 0 276.4 -276.4 0 0 -276.4zm0 276.4l276.4 0 0 276.4 -276.4 0 0 -276.4zm276.4 0l276.4 0 0 276.4 -276.4 0 0 -276.4zm0 276.4l276.4 0 0 276.4 -276.4 0 0 -276.4zm276.4 0l276.4 0 0 276.4 -276.4 0 0 -276.4zm0 276.4l276.4 0 0 276.4 -276.4 0 0 -276.4z"/>
     <path class="fil1" d="M1520.19 3731.38l276.4 0 0 276.4 -276.4 0 0 -276.4zm276.4 0l276.4 0 0 276.4 -276.4 0 0 -276.4z"/>
     <polygon class="fil1" points="967.39,4007.78 1243.79,4007.78 1243.79,4284.17 967.39,4284.17 "/>
     <path class="fil1" d="M2072.99 4007.78l276.4 0 0 276.4 -276.4 0 0 -276.4zm276.4 0l276.4 0 0 276.4 -276.4 0 0 -276.4zm276.4 0l276.4 0 0 276.4 -276.4 0 0 -276.4zm276.4 0l276.4 0 0 276.4 -276.4 0 0 -276.4zm0 -276.4l276.4 0 0 276.4 -276.4 0 0 -276.4zm276.4 0l276.4 0 0 276.4 -276.4 0 0 -276.4zm0 276.4l276.4 0 0 276.4 -276.4 0 0 -276.4zm-1105.59 276.4l276.4 0 0 276.4 -276.4 0 0 -276.4zm552.8 0l276.4 0 0 276.4 -276.4 0 0 -276.4zm552.8 0l276.4 0 0 276.4 -276.4 0 0 -276.4zm276.4 0l276.4 0 0 276.4 -276.4 0 0 -276.4zm276.4 0l276.4 0 0 276.4 -276.4 0 0 -276.4zm-1658.39 276.4l276.4 0 0 276.4 -276.4 0 0 -276.4zm276.4 0l276.4 0 0 276.4 -276.4 0 0 -276.4zm1105.59 0l276.4 0 0 276.4 -276.4 0 0 -276.4z"/>
     <path class="fil1" d="M6495.35 4007.78l276.4 0 0 276.4 -276.4 0 0 -276.4zm276.4 0l276.4 0 0 276.4 -276.4 0 0 -276.4zm0 -276.4l276.4 0 0 276.4 -276.4 0 0 -276.4zm276.4 0l276.4 0 0 276.4 -276.4 0 0 -276.4zm0 276.4l276.4 0 0 276.4 -276.4 0 0 -276.4zm-552.8 276.4l276.4 0 0 276.4 -276.4 0 0 -276.4zm276.4 0l276.4 0 0 276.4 -276.4 0 0 -276.4zm276.4 0l276.4 0 0 276.4 -276.4 0 0 -276.4zm276.4 0l276.4 0 0 276.4 -276.4 0 0 -276.4zm-552.8 276.4l276.4 0 0 276.4 -276.4 0 0 -276.4z"/>
     <polygon class="fil1" points="8430.14,4007.78 8706.54,4007.78 8706.54,4284.17 8430.14,4284.17 "/>
     <path class="fil1" d="M691 4284.17l276.4 0 0 276.4 -276.4 0 0 -276.4zm0 276.4l276.4 0 0 276.4 -276.4 0 0 -276.4z"/>
     <polygon class="fil1" points="5942.55,4560.57 6218.95,4560.57 6218.95,4836.97 5942.55,4836.97 "/>
     <polygon class="fil1" points="7600.94,4560.57 7877.34,4560.57 7877.34,4836.97 7600.94,4836.97 "/>
     <path class="fil1" d="M8430.14 4836.97l276.4 0 0 276.4 -276.4 0 0 -276.4zm0 276.4l276.4 0 0 276.39 -276.4 0 0 -276.39zm276.4 0l276.4 0 0 276.39 -276.4 0 0 -276.39zm276.4 0l276.4 0 0 276.39 -276.4 0 0 -276.39zm-276.4 -552.8l276.4 0 0 276.4 -276.4 0 0 -276.4zm276.4 0l276.4 0 0 276.4 -276.4 0 0 -276.4zm0 -276.4l276.4 0 0 276.4 -276.4 0 0 -276.4zm276.4 276.4l276.4 0 0 276.4 -276.4 0 0 -276.4zm-276.4 276.4l276.4 0 0 276.4 -276.4 0 0 -276.4zm276.4 0l276.4 0 0 276.4 -276.4 0 0 -276.4zm276.4 0l276.4 0 0 276.4 -276.4 0 0 -276.4zm0 276.4l276.4 0 0 276.39 -276.4 0 0 -276.39z"/>
     <path class="fil1" d="M691 5113.37l276.4 0 0 276.39 -276.4 0 0 -276.39zm0 276.39l276.4 0 0 276.4 -276.4 0 0 -276.4zm276.4 0l276.4 0 0 276.4 -276.4 0 0 -276.4z"/>
     <polygon class="fil1" points="3454.98,5113.37 3731.38,5113.37 3731.38,5389.76 3454.98,5389.76 "/>
     <path class="fil1" d="M4560.57 5113.37l276.4 0 0 276.39 -276.4 0 0 -276.39zm0 276.39l276.4 0 0 276.4 -276.4 0 0 -276.4zm276.4 0l276.4 0 0 276.4 -276.4 0 0 -276.4zm276.4 0l276.39 0 0 276.4 -276.39 0 0 -276.4zm-829.2 -1381.98l276.4 0 0 276.4 -276.4 0 0 -276.4zm276.4 0l276.4 0 0 276.4 -276.4 0 0 -276.4zm276.4 0l276.4 0 0 276.4 -276.4 0 0 -276.4zm0 -276.4l276.4 0 0 276.4 -276.4 0 0 -276.4zm276.4 276.4l276.39 0 0 276.4 -276.39 0 0 -276.4zm-276.4 276.4l276.4 0 0 276.4 -276.4 0 0 -276.4zm0 276.4l276.4 0 0 276.4 -276.4 0 0 -276.4zm276.4 0l276.39 0 0 276.4 -276.39 0 0 -276.4zm276.39 0l276.4 0 0 276.4 -276.4 0 0 -276.4zm0 -276.4l276.4 0 0 276.4 -276.4 0 0 -276.4zm-552.79 552.8l276.4 0 0 276.4 -276.4 0 0 -276.4zm276.4 0l276.39 0 0 276.4 -276.39 0 0 -276.4zm276.39 0l276.4 0 0 276.4 -276.4 0 0 -276.4zm276.4 0l276.4 0 0 276.4 -276.4 0 0 -276.4zm-552.79 276.4l276.39 0 0 276.39 -276.39 0 0 -276.39zm276.39 0l276.4 0 0 276.39 -276.4 0 0 -276.39z"/>
     <path class="fil1" d="M5942.55 5113.37l276.4 0 0 276.39 -276.4 0 0 -276.39zm276.4 0l276.4 0 0 276.39 -276.4 0 0 -276.39zm0 -276.4l276.4 0 0 276.4 -276.4 0 0 -276.4z"/>
     <path class="fil1" d="M6771.75 5113.37l276.4 0 0 276.39 -276.4 0 0 -276.39zm0 276.39l276.4 0 0 276.4 -276.4 0 0 -276.4zm276.4 0l276.4 0 0 276.4 -276.4 0 0 -276.4zm276.4 0l276.4 0 0 276.4 -276.4 0 0 -276.4zm0 -276.39l276.4 0 0 276.39 -276.4 0 0 -276.39zm276.4 276.39l276.4 0 0 276.4 -276.4 0 0 -276.4zm276.4 0l276.4 0 0 276.4 -276.4 0 0 -276.4zm-829.2 276.4l276.4 0 0 276.4 -276.4 0 0 -276.4zm276.4 0l276.4 0 0 276.4 -276.4 0 0 -276.4zm-276.4 276.4l276.4 0 0 276.4 -276.4 0 0 -276.4zm276.4 0l276.4 0 0 276.4 -276.4 0 0 -276.4zm-276.4 276.4l276.4 0 0 276.4 -276.4 0 0 -276.4z"/>
     <path class="fil1" d="M1243.79 5666.16l276.4 0 0 276.4 -276.4 0 0 -276.4zm276.4 0l276.4 0 0 276.4 -276.4 0 0 -276.4zm0 -276.4l276.4 0 0 276.4 -276.4 0 0 -276.4zm276.4 0l276.4 0 0 276.4 -276.4 0 0 -276.4zm-829.2 -552.79l276.4 0 0 276.4 -276.4 0 0 -276.4zm276.4 0l276.4 0 0 276.4 -276.4 0 0 -276.4zm0 -552.8l276.4 0 0 276.4 -276.4 0 0 -276.4zm276.4 0l276.4 0 0 276.4 -276.4 0 0 -276.4zm-276.4 276.4l276.4 0 0 276.4 -276.4 0 0 -276.4zm276.4 276.4l276.4 0 0 276.4 -276.4 0 0 -276.4zm276.4 0l276.4 0 0 276.4 -276.4 0 0 -276.4zm-552.8 276.4l276.4 0 0 276.39 -276.4 0 0 -276.39zm552.8 0l276.4 0 0 276.39 -276.4 0 0 -276.39z"/>
     <path class="fil1" d="M2072.99 5666.16l276.4 0 0 276.4 -276.4 0 0 -276.4zm276.4 0l276.4 0 0 276.4 -276.4 0 0 -276.4zm276.4 0l276.4 0 0 276.4 -276.4 0 0 -276.4zm-276.4 -552.79l276.4 0 0 276.39 -276.4 0 0 -276.39zm276.4 0l276.4 0 0 276.39 -276.4 0 0 -276.39zm0 -276.4l276.4 0 0 276.4 -276.4 0 0 -276.4zm276.4 0l276.4 0 0 276.4 -276.4 0 0 -276.4zm0 -276.4l276.4 0 0 276.4 -276.4 0 0 -276.4zm-276.4 829.18l276.4 0 0 276.4 -276.4 0 0 -276.4zm276.4 276.4l276.4 0 0 276.4 -276.4 0 0 -276.4zm276.4 0l276.4 0 0 276.4 -276.4 0 0 -276.4z"/>
     <path class="fil1" d="M967.39 5942.55l276.4 0 0 276.4 -276.4 0 0 -276.4zm0 276.4l276.4 0 0 276.4 -276.4 0 0 -276.4zm276.4 0l276.4 0 0 276.4 -276.4 0 0 -276.4zm276.4 0l276.4 0 0 276.4 -276.4 0 0 -276.4z"/>
     <polygon class="fil1" points="1796.59,5942.55 2072.99,5942.55 2072.99,6218.95 1796.59,6218.95 "/>
     <path class="fil1" d="M3454.98 5942.55l276.4 0 0 276.4 -276.4 0 0 -276.4zm276.4 0l276.4 0 0 276.4 -276.4 0 0 -276.4zm0 -552.8l276.4 0 0 276.4 -276.4 0 0 -276.4zm276.4 0l276.4 0 0 276.4 -276.4 0 0 -276.4zm0 -829.18l276.4 0 0 276.4 -276.4 0 0 -276.4zm276.4 0l276.4 0 0 276.4 -276.4 0 0 -276.4zm-276.4 276.4l276.4 0 0 276.4 -276.4 0 0 -276.4zm276.4 0l276.4 0 0 276.4 -276.4 0 0 -276.4zm-276.4 276.4l276.4 0 0 276.39 -276.4 0 0 -276.39zm-276.4 552.79l276.4 0 0 276.4 -276.4 0 0 -276.4zm276.4 0l276.4 0 0 276.4 -276.4 0 0 -276.4zm0 276.4l276.4 0 0 276.4 -276.4 0 0 -276.4zm276.4 0l276.4 0 0 276.4 -276.4 0 0 -276.4zm-829.2 276.4l276.4 0 0 276.4 -276.4 0 0 -276.4zm276.4 0l276.4 0 0 276.4 -276.4 0 0 -276.4zm-276.4 276.4l276.4 0 0 276.4 -276.4 0 0 -276.4zm276.4 0l276.4 0 0 276.4 -276.4 0 0 -276.4zm276.4 0l276.4 0 0 276.4 -276.4 0 0 -276.4zm276.4 0l276.4 0 0 276.4 -276.4 0 0 -276.4zm276.4 0l276.4 0 0 276.4 -276.4 0 0 -276.4zm0 -276.4l276.4 0 0 276.4 -276.4 0 0 -276.4zm276.4 276.4l276.4 0 0 276.4 -276.4 0 0 -276.4zm276.4 0l276.39 0 0 276.4 -276.39 0 0 -276.4zm276.39 0l276.4 0 0 276.4 -276.4 0 0 -276.4zm0 -552.8l276.4 0 0 276.4 -276.4 0 0 -276.4zm276.4 0l276.4 0 0 276.4 -276.4 0 0 -276.4zm0 -276.4l276.4 0 0 276.4 -276.4 0 0 -276.4zm276.4 0l276.4 0 0 276.4 -276.4 0 0 -276.4zm0 276.4l276.4 0 0 276.4 -276.4 0 0 -276.4zm-552.8 276.4l276.4 0 0 276.4 -276.4 0 0 -276.4zm276.4 0l276.4 0 0 276.4 -276.4 0 0 -276.4zm276.4 0l276.4 0 0 276.4 -276.4 0 0 -276.4zm-276.4 276.4l276.4 0 0 276.4 -276.4 0 0 -276.4zm-1658.38 276.4l276.4 0 0 276.4 -276.4 0 0 -276.4zm276.4 0l276.4 0 0 276.4 -276.4 0 0 -276.4zm829.2 0l276.39 0 0 276.4 -276.39 0 0 -276.4zm552.79 0l276.4 0 0 276.4 -276.4 0 0 -276.4zm-1381.98 276.4l276.4 0 0 276.4 -276.4 0 0 -276.4z"/>
     <path class="fil1" d="M7600.94 6218.95l276.4 0 0 276.4 -276.4 0 0 -276.4zm276.4 0l276.4 0 0 276.4 -276.4 0 0 -276.4zm0 -276.4l276.4 0 0 276.4 -276.4 0 0 -276.4zm276.4 276.4l276.4 0 0 276.4 -276.4 0 0 -276.4zm276.4 0l276.4 0 0 276.4 -276.4 0 0 -276.4zm0 -552.8l276.4 0 0 276.4 -276.4 0 0 -276.4zm276.4 0l276.4 0 0 276.4 -276.4 0 0 -276.4zm276.4 0l276.4 0 0 276.4 -276.4 0 0 -276.4zm-552.8 276.4l276.4 0 0 276.4 -276.4 0 0 -276.4zm276.4 0l276.4 0 0 276.4 -276.4 0 0 -276.4zm276.4 0l276.4 0 0 276.4 -276.4 0 0 -276.4zm-276.4 276.4l276.4 0 0 276.4 -276.4 0 0 -276.4zm-829.2 276.4l276.4 0 0 276.4 -276.4 0 0 -276.4zm276.4 0l276.4 0 0 276.4 -276.4 0 0 -276.4zm276.4 0l276.4 0 0 276.4 -276.4 0 0 -276.4zm276.4 0l276.4 0 0 276.4 -276.4 0 0 -276.4z"/>
     <path class="fil1" d="M9259.33 6218.95l276.4 0 0 276.4 -276.4 0 0 -276.4zm276.4 0l276.4 0 0 276.4 -276.4 0 0 -276.4zm0 -276.4l276.4 0 0 276.4 -276.4 0 0 -276.4zm-276.4 552.8l276.4 0 0 276.4 -276.4 0 0 -276.4z"/>
     <path class="fil1" d="M691 6495.35l276.4 0 0 276.4 -276.4 0 0 -276.4zm0 276.4l276.4 0 0 276.4 -276.4 0 0 -276.4zm0 276.4l276.4 0 0 276.4 -276.4 0 0 -276.4zm0 276.4l276.4 0 0 276.4 -276.4 0 0 -276.4zm276.4 0l276.4 0 0 276.4 -276.4 0 0 -276.4z"/>
     <polygon class="fil1" points="2072.99,6495.35 2349.39,6495.35 2349.39,6771.75 2072.99,6771.75 "/>
     <polygon class="fil1" points="7324.55,6495.35 7600.94,6495.35 7600.94,6771.75 7324.55,6771.75 "/>
     <path class="fil1" d="M1243.79 6771.75l276.4 0 0 276.4 -276.4 0 0 -276.4zm0 276.4l276.4 0 0 276.4 -276.4 0 0 -276.4zm276.4 0l276.4 0 0 276.4 -276.4 0 0 -276.4zm276.4 0l276.4 0 0 276.4 -276.4 0 0 -276.4z"/>
     <polygon class="fil1" points="7324.55,7048.15 7600.94,7048.15 7600.94,7324.55 7324.55,7324.55 "/>
     <path class="fil1" d="M8153.74 7048.15l276.4 0 0 276.4 -276.4 0 0 -276.4zm276.4 0l276.4 0 0 276.4 -276.4 0 0 -276.4zm276.4 0l276.4 0 0 276.4 -276.4 0 0 -276.4zm276.4 0l276.4 0 0 276.4 -276.4 0 0 -276.4zm276.4 0l276.4 0 0 276.4 -276.4 0 0 -276.4zm276.4 0l276.4 0 0 276.4 -276.4 0 0 -276.4zm-829.2 276.4l276.4 0 0 276.4 -276.4 0 0 -276.4zm552.8 0l276.4 0 0 276.4 -276.4 0 0 -276.4zm276.4 0l276.4 0 0 276.4 -276.4 0 0 -276.4zm0 276.4l276.4 0 0 276.4 -276.4 0 0 -276.4z"/>
     <path class="fil1" d="M5666.16 7324.55l276.4 0 0 276.4 -276.4 0 0 -276.4zm276.4 0l276.4 0 0 276.4 -276.4 0 0 -276.4zm0 -276.4l276.4 0 0 276.4 -276.4 0 0 -276.4zm276.4 0l276.4 0 0 276.4 -276.4 0 0 -276.4zm0 -276.4l276.4 0 0 276.4 -276.4 0 0 -276.4zm-552.8 829.2l276.4 0 0 276.4 -276.4 0 0 -276.4zm0 276.4l276.4 0 0 276.4 -276.4 0 0 -276.4zm276.4 0l276.4 0 0 276.4 -276.4 0 0 -276.4zm276.4 0l276.4 0 0 276.4 -276.4 0 0 -276.4zm-276.4 276.4l276.4 0 0 276.4 -276.4 0 0 -276.4zm276.4 0l276.4 0 0 276.4 -276.4 0 0 -276.4zm276.4 0l276.4 0 0 276.4 -276.4 0 0 -276.4zm276.4 0l276.4 0 0 276.4 -276.4 0 0 -276.4zm0 -276.4l276.4 0 0 276.4 -276.4 0 0 -276.4zm276.4 0l276.4 0 0 276.4 -276.4 0 0 -276.4zm-552.8 -552.8l276.4 0 0 276.4 -276.4 0 0 -276.4zm276.4 0l276.4 0 0 276.4 -276.4 0 0 -276.4zm0 -276.4l276.4 0 0 276.4 -276.4 0 0 -276.4zm276.4 276.4l276.4 0 0 276.4 -276.4 0 0 -276.4zm-552.8 276.4l276.4 0 0 276.4 -276.4 0 0 -276.4zm552.8 0l276.4 0 0 276.4 -276.4 0 0 -276.4zm-829.2 829.2l276.4 0 0 276.4 -276.4 0 0 -276.4zm276.4 0l276.4 0 0 276.4 -276.4 0 0 -276.4zm276.4 0l276.4 0 0 276.4 -276.4 0 0 -276.4zm-276.4 276.4l276.4 0 0 276.4 -276.4 0 0 -276.4zm0 276.4l276.4 0 0 276.4 -276.4 0 0 -276.4zm276.4 0l276.4 0 0 276.4 -276.4 0 0 -276.4zm276.4 0l276.4 0 0 276.4 -276.4 0 0 -276.4zm-552.8 276.4l276.4 0 0 276.4 -276.4 0 0 -276.4zm552.8 0l276.4 0 0 276.4 -276.4 0 0 -276.4z"/>
     <path class="fil1" d="M5113.37 7600.94l276.39 0 0 276.4 -276.39 0 0 -276.4zm0 276.4l276.39 0 0 276.4 -276.39 0 0 -276.4z"/>
     <path class="fil1" d="M8706.54 7877.34l276.4 0 0 276.4 -276.4 0 0 -276.4zm276.4 0l276.4 0 0 276.4 -276.4 0 0 -276.4zm276.4 0l276.4 0 0 276.4 -276.4 0 0 -276.4zm-276.4 276.4l276.4 0 0 276.4 -276.4 0 0 -276.4zm276.4 0l276.4 0 0 276.4 -276.4 0 0 -276.4zm0 276.4l276.4 0 0 276.4 -276.4 0 0 -276.4zm0 276.4l276.4 0 0 276.4 -276.4 0 0 -276.4zm0 276.4l276.4 0 0 276.4 -276.4 0 0 -276.4zm276.4 0l276.4 0 0 276.4 -276.4 0 0 -276.4z"/>
     <polygon class="fil1" points="2902.18,8153.74 3178.58,8153.74 3178.58,8430.14 2902.18,8430.14 "/>
     <path class="fil1" d="M5113.37 8706.54l276.39 0 0 276.4 -276.39 0 0 -276.4zm276.39 0l276.4 0 0 276.4 -276.4 0 0 -276.4zm0 276.4l276.4 0 0 276.4 -276.4 0 0 -276.4z"/>
     <polygon class="fil1" points="7324.55,8706.54 7600.94,8706.54 7600.94,8982.94 7324.55,8982.94 "/>
     <path class="fil1" d="M8153.74 8706.54l276.4 0 0 276.4 -276.4 0 0 -276.4zm276.4 0l276.4 0 0 276.4 -276.4 0 0 -276.4zm276.4 0l276.4 0 0 276.4 -276.4 0 0 -276.4zm0 -276.4l276.4 0 0 276.4 -276.4 0 0 -276.4zm-276.4 552.8l276.4 0 0 276.4 -276.4 0 0 -276.4zm276.4 0l276.4 0 0 276.4 -276.4 0 0 -276.4zm0 276.4l276.4 0 0 276.4 -276.4 0 0 -276.4z"/>
     <polygon class="fil1" points="4836.97,8982.94 5113.37,8982.94 5113.37,9259.33 4836.97,9259.33 "/>
     <path class="fil1" d="M5666.16 9259.33l276.4 0 0 276.4 -276.4 0 0 -276.4zm276.4 0l276.4 0 0 276.4 -276.4 0 0 -276.4zm0 -552.8l276.4 0 0 276.4 -276.4 0 0 -276.4zm0 276.4l276.4 0 0 276.4 -276.4 0 0 -276.4z"/>
     <path class="fil1" d="M3731.38 9535.73l276.4 0 0 276.4 -276.4 0 0 -276.4zm276.4 0l276.4 0 0 276.4 -276.4 0 0 -276.4zm0 -276.4l276.4 0 0 276.4 -276.4 0 0 -276.4zm276.4 0l276.4 0 0 276.4 -276.4 0 0 -276.4zm-829.2 -276.4l276.4 0 0 276.4 -276.4 0 0 -276.4zm276.4 0l276.4 0 0 276.4 -276.4 0 0 -276.4zm-552.8 -552.8l276.4 0 0 276.4 -276.4 0 0 -276.4zm276.4 0l276.4 0 0 276.4 -276.4 0 0 -276.4zm276.4 0l276.4 0 0 276.4 -276.4 0 0 -276.4zm-1381.99 -1105.59l276.4 0 0 276.4 -276.4 0 0 -276.4zm276.4 0l276.4 0 0 276.4 -276.4 0 0 -276.4zm-276.4 -552.8l276.4 0 0 276.4 -276.4 0 0 -276.4zm276.4 0l276.4 0 0 276.4 -276.4 0 0 -276.4zm-276.4 -552.8l276.4 0 0 276.4 -276.4 0 0 -276.4zm276.4 0l276.4 0 0 276.4 -276.4 0 0 -276.4zm276.4 0l276.4 0 0 276.4 -276.4 0 0 -276.4zm-276.4 276.4l276.4 0 0 276.4 -276.4 0 0 -276.4zm276.4 0l276.4 0 0 276.4 -276.4 0 0 -276.4zm0 276.4l276.4 0 0 276.4 -276.4 0 0 -276.4zm276.4 0l276.4 0 0 276.4 -276.4 0 0 -276.4zm-552.8 276.4l276.4 0 0 276.4 -276.4 0 0 -276.4zm552.8 0l276.4 0 0 276.4 -276.4 0 0 -276.4zm276.4 0l276.4 0 0 276.4 -276.4 0 0 -276.4zm-552.8 276.4l276.4 0 0 276.4 -276.4 0 0 -276.4zm552.8 0l276.4 0 0 276.4 -276.4 0 0 -276.4zm276.4 0l276.4 0 0 276.4 -276.4 0 0 -276.4zm276.4 0l276.4 0 0 276.4 -276.4 0 0 -276.4zm-1105.59 276.4l276.4 0 0 276.4 -276.4 0 0 -276.4zm552.8 0l276.4 0 0 276.4 -276.4 0 0 -276.4zm276.4 0l276.4 0 0 276.4 -276.4 0 0 -276.4zm0 276.4l276.4 0 0 276.4 -276.4 0 0 -276.4zm0 276.4l276.4 0 0 276.4 -276.4 0 0 -276.4zm276.4 276.4l276.4 0 0 276.4 -276.4 0 0 -276.4zm276.4 0l276.4 0 0 276.4 -276.4 0 0 -276.4zm0 -552.8l276.4 0 0 276.4 -276.4 0 0 -276.4zm276.4 0l276.4 0 0 276.4 -276.4 0 0 -276.4zm0 -552.8l276.4 0 0 276.4 -276.4 0 0 -276.4zm276.4 0l276.4 0 0 276.4 -276.4 0 0 -276.4zm0 -276.4l276.4 0 0 276.4 -276.4 0 0 -276.4zm-276.4 552.8l276.4 0 0 276.4 -276.4 0 0 -276.4zm-276.4 552.8l276.4 0 0 276.4 -276.4 0 0 -276.4zm276.4 0l276.4 0 0 276.4 -276.4 0 0 -276.4zm276.4 0l276.4 0 0 276.4 -276.4 0 0 -276.4zm-276.4 276.4l276.4 0 0 276.4 -276.4 0 0 -276.4zm276.4 0l276.4 0 0 276.4 -276.4 0 0 -276.4zm-1105.59 276.4l276.4 0 0 276.4 -276.4 0 0 -276.4zm552.8 0l276.4 0 0 276.4 -276.4 0 0 -276.4zm0 276.4l276.4 0 0 276.4 -276.4 0 0 -276.4z"/>
     <polygon class="fil1" points="5113.37,9535.73 5389.76,9535.73 5389.76,9812.13 5113.37,9812.13 "/>
     <polygon class="fil1" points="6771.75,9535.73 7048.15,9535.73 7048.15,9812.13 6771.75,9812.13 "/>
     <path class="fil1" d="M7324.55 9535.73l276.4 0 0 276.4 -276.4 0 0 -276.4zm276.4 0l276.4 0 0 276.4 -276.4 0 0 -276.4zm0 -276.4l276.4 0 0 276.4 -276.4 0 0 -276.4zm276.4 0l276.4 0 0 276.4 -276.4 0 0 -276.4zm0 276.4l276.4 0 0 276.4 -276.4 0 0 -276.4z"/>
     <path class="fil1" d="M8982.94 9535.73l276.4 0 0 276.4 -276.4 0 0 -276.4zm276.4 0l276.4 0 0 276.4 -276.4 0 0 -276.4z"/>
    </g>
    <g>
     <path class="fil1" d="M691 691l1934.79 0 0 1934.79 -1934.79 0 0 -1934.79zm552.8 276.4l-276.4 0 0 1381.99 1381.99 0 0 -1381.99 -1105.59 0zm6633.55 -276.4l1934.79 0 0 1934.79 -1934.79 0 0 -1934.79zm552.8 276.4l-276.4 0 0 1381.99 1381.99 0 0 -1381.99 -1105.59 0zm-1105.59 6357.15l1381.99 0 0 1381.99 -1381.99 0 0 -1381.99zm552.8 276.4l-276.4 0 0 829.2 829.2 0 0 -829.2 -552.8 0zm-7186.35 276.4l1934.79 0 0 1934.79 -1934.79 0 0 -1934.79zm552.8 276.4l-276.4 0 0 1381.99 1381.99 0 0 -1381.99 -1105.59 0z"/>
    </g>
    <g>
     <path class="fil1" d="M1243.79 1243.79l829.2 0 0 829.2 -829.2 0 0 -829.2zm7186.35 0l829.2 0 0 829.2 -829.2 0 0 -829.2zm-552.8 6633.55l276.4 0 0 276.4 -276.4 0 0 -276.4zm-6633.55 552.8l829.2 0 0 829.2 -829.2 0 0 -829.2z"/>
    </g>
   </g>
  </g>
 </g>
</svg>
